<svg viewBox="0 0 32 32" xml:space="preserve" xmlns="http://www.w3.org/2000/svg"><path d="M8.591 16.312 1 10.627V7.745a3.477 3.477 0 0 1 3.478-3.468c.743 0 1.458.241 2.067.697L8.59 6.508v9.804zM2 10.127l5.591 4.187V7.008L5.946 5.775a2.442 2.442 0 0 0-1.468-.498C3.286 5.277 2 6.221 2 7.745v2.382zM23.409 16.312V6.508l2.045-1.533a3.428 3.428 0 0 1 2.068-.698A3.477 3.477 0 0 1 31 7.745v2.882l-7.591 5.685zm1-9.304v7.306L30 10.127V7.745c0-1.524-1.286-2.468-2.478-2.468a2.44 2.44 0 0 0-1.469.498l-1.644 1.233z" fill="#ffffff" class="fill-263238"></path><path d="M28.523 27h-4.614a.5.5 0 0 1-.5-.5v-9a.5.5 0 0 1 1 0V26h4.114c.814 0 1.477-.662 1.477-1.475V7.745c0-.952-.508-1.774-1.36-2.201a2.426 2.426 0 0 0-2.587.231L16.3 13.081a.501.501 0 0 1-.6 0L5.946 5.775a2.43 2.43 0 0 0-2.586-.231A2.419 2.419 0 0 0 2 7.745v16.78C2 25.338 2.663 26 3.477 26h4.114v-8.5a.5.5 0 0 1 1 0v9a.5.5 0 0 1-.5.5H3.477A2.479 2.479 0 0 1 1 24.525V7.745c0-1.318.733-2.504 1.913-3.095a3.454 3.454 0 0 1 3.633.325L16 12.056l9.454-7.081a3.452 3.452 0 0 1 3.634-.324A3.442 3.442 0 0 1 31 7.745v16.78A2.479 2.479 0 0 1 28.523 27z" fill="#ffffff" class="fill-263238"></path><path d="M16 21.736a.499.499 0 0 1-.3-.1l-7.909-5.923a.5.5 0 0 1 .599-.801L16 20.611l7.609-5.699a.5.5 0 0 1 .599.801L16.3 21.636a.499.499 0 0 1-.3.1z" fill="#ffffff" class="fill-263238"></path></svg>